<svg width="218" height="48" viewBox="0 0 218 48" fill="none" xmlns="http://www.w3.org/2000/svg">
<path d="M12 0C15.96 0 19.92 0 24 0C24 1.32 24 2.64 24 4C25.32 4 26.64 4 28 4C28 9.28 28 14.56 28 20C26.68 20 25.36 20 24 20C24 21.32 24 22.64 24 24C25.32 24 26.64 24 28 24C28 26.64 28 29.28 28 32C26.68 32 25.36 32 24 32C24 33.32 24 34.64 24 36C18.72 36 13.44 36 8 36C8 34.68 8 33.36 8 32C6.68 32 5.36 32 4 32C4 30.68 4 29.36 4 28C2.68 28 1.36 28 0 28C0 26.68 0 25.36 0 24C1.32 24 2.64 24 4 24C4 18.72 4 13.44 4 8C5.32 8 6.64 8 8 8C8 6.68 8 5.36 8 4C9.32 4 10.64 4 12 4C12 2.68 12 1.36 12 0ZM8 20C8 21.32 8 22.64 8 24C9.32 24 10.64 24 12 24C12 22.68 12 21.36 12 20C10.68 20 9.36 20 8 20ZM12 28C12 29.32 12 30.64 12 32C15.96 32 19.92 32 24 32C24 30.68 24 29.36 24 28C20.04 28 16.08 28 12 28Z" fill="white"/>
<path d="M74 10C75.32 10 76.64 10 78 10C78 11.32 78 12.64 78 14C78.66 14 79.32 14 80 14C80 15.32 80 16.64 80 18C80.66 18 81.32 18 82 18C82 16.68 82 15.36 82 14C82.66 14 83.32 14 84 14C84 12.68 84 11.36 84 10C87.3 10 90.6 10 94 10C94 15.94 94 21.88 94 28C91.36 28 88.72 28 86 28C86 24.7 86 21.4 86 18C85.34 18 84.68 18 84 18C84 19.32 84 20.64 84 22C83.34 22 82.68 22 82 22C82 23.32 82 24.64 82 26C81.34 26 80.68 26 80 26C80 24.68 80 23.36 80 22C79.34 22 78.68 22 78 22C78 20.68 78 19.36 78 18C77.34 18 76.68 18 76 18C76 21.3 76 24.6 76 28C74.68 28 73.36 28 72 28C72 22.72 72 17.44 72 12C72.66 12 73.32 12 74 12C74 11.34 74 10.68 74 10Z" fill="white"/>
<path d="M202 10C207.28 10 212.56 10 218 10C218 12.64 218 15.28 218 18C214.7 18 211.4 18 208 18C208 18.66 208 19.32 208 20C210.64 20 213.28 20 216 20C216 20.66 216 21.32 216 22C216.66 22 217.32 22 218 22C218 23.32 218 24.64 218 26C217.34 26 216.68 26 216 26C216 26.66 216 27.32 216 28C211.38 28 206.76 28 202 28C202 27.34 202 26.68 202 26C201.34 26 200.68 26 200 26C200 21.38 200 16.76 200 12C200.66 12 201.32 12 202 12C202 11.34 202 10.68 202 10ZM208 22C208 22.66 208 23.32 208 24C209.32 24 210.64 24 212 24C212 23.34 212 22.68 212 22C210.68 22 209.36 22 208 22Z" fill="white"/>
<path d="M96 10C101.94 10 107.88 10 114 10C114 10.66 114 11.32 114 12C114.66 12 115.32 12 116 12C116 15.3 116 18.6 116 22C114.68 22 113.36 22 112 22C112 22.66 112 23.32 112 24C108.7 24 105.4 24 102 24C102 25.32 102 26.64 102 28C100.02 28 98.04 28 96 28C96 22.06 96 16.12 96 10ZM102 18C102 18.66 102 19.32 102 20C103.98 20 105.96 20 108 20C108 19.34 108 18.68 108 18C106.02 18 104.04 18 102 18Z" fill="white"/>
<path d="M180 10C185.94 10 191.88 10 198 10C198 12.64 198 15.28 198 18C194.7 18 191.4 18 188 18C188 18.66 188 19.32 188 20C191.3 20 194.6 20 198 20C198 21.98 198 23.96 198 26C197.34 26 196.68 26 196 26C196 26.66 196 27.32 196 28C190.72 28 185.44 28 180 28C180 26.68 180 25.36 180 24C183.96 24 187.92 24 192 24C192 23.34 192 22.68 192 22C188.7 22 185.4 22 182 22C182 21.34 182 20.68 182 20C181.34 20 180.68 20 180 20C180 16.7 180 13.4 180 10Z" fill="white"/>
<path d="M160 10C165.28 10 170.56 10 176 10C176 10.66 176 11.32 176 12C176.66 12 177.32 12 178 12C178 14.64 178 17.28 178 20C177.34 20 176.68 20 176 20C176 20.66 176 21.32 176 22C172.7 22 169.4 22 166 22C166 22.66 166 23.32 166 24C169.96 24 173.92 24 178 24C178 25.32 178 26.64 178 28C172.06 28 166.12 28 160 28C160 26.02 160 24.04 160 22C160.66 22 161.32 22 162 22C162 21.34 162 20.68 162 20C164.64 20 167.28 20 170 20C170 19.34 170 18.68 170 18C166.7 18 163.4 18 160 18C160 15.36 160 12.72 160 10Z" fill="white"/>
<path d="M44 10C49.28 10 54.56 10 60 10C60 12.64 60 15.28 60 18C56.04 18 52.08 18 48 18C48 18.66 48 19.32 48 20C51.96 20 55.92 20 60 20C60 21.98 60 23.96 60 26C59.34 26 58.68 26 58 26C58 26.66 58 27.32 58 28C52.72 28 47.44 28 42 28C42 26.68 42 25.36 42 24C45.96 24 49.92 24 54 24C54 23.34 54 22.68 54 22C50.04 22 46.08 22 42 22C42 18.7 42 15.4 42 12C42.66 12 43.32 12 44 12C44 11.34 44 10.68 44 10Z" fill="white"/>
<path d="M134 10C135.98 10 137.96 10 140 10C140 12.64 140 15.28 140 18C140.66 18 141.32 18 142 18C142 17.34 142 16.68 142 16C142.66 16 143.32 16 144 16C144 14.02 144 12.04 144 10C146.64 10 149.28 10 152 10C152 12.64 152 15.28 152 18C151.34 18 150.68 18 150 18C150 19.32 150 20.64 150 22C148.68 22 147.36 22 146 22C146 23.98 146 25.96 146 28C143.36 28 140.72 28 138 28C138 26.02 138 24.04 138 22C136.68 22 135.36 22 134 22C134 20.68 134 19.36 134 18C133.34 18 132.68 18 132 18C132 16.02 132 14.04 132 12C132.66 12 133.32 12 134 12C134 11.34 134 10.68 134 10Z" fill="white"/>
<path d="M24 36C25.32 36 26.64 36 28 36C28 39.96 28 43.92 28 48C20.08 48 12.16 48 4 48C4 46.68 4 45.36 4 44C5.32 44 6.64 44 8 44C8 42.68 8 41.36 8 40C13.28 40 18.56 40 24 40C24 38.68 24 37.36 24 36Z" fill="white"/>
<path d="M120 10C121.98 10 123.96 10 126 10C126 13.3 126 16.6 126 20C127.32 20 128.64 20 130 20C130 22.64 130 25.28 130 28C126.04 28 122.08 28 118 28C118 22.72 118 17.44 118 12C118.66 12 119.32 12 120 12C120 11.34 120 10.68 120 10Z" fill="white"/>
<path d="M64 10C65.98 10 67.96 10 70 10C70 15.94 70 21.88 70 28C67.36 28 64.72 28 62 28C62 22.72 62 17.44 62 12C62.66 12 63.32 12 64 12C64 11.34 64 10.68 64 10Z" fill="white"/>
</svg>
